<?xml version="1.0" standalone="no"?>
<!DOCTYPE svg PUBLIC "-//W3C//DTD SVG 20010904//EN"
 "http://www.w3.org/TR/2001/REC-SVG-20010904/DTD/svg10.dtd">
<svg version="1.0" xmlns="http://www.w3.org/2000/svg"
 width="2541.000000pt" height="2128.000000pt" viewBox="0 0 2541.000000 2128.000000"
 preserveAspectRatio="xMidYMid meet">

<g transform="translate(0.000000,2128.000000) scale(0.100000,-0.100000)"
fill="#000000" stroke="none">
<path d="M18458 18698 c-8 -7 -95 -116 -193 -243 -98 -126 -193 -244 -211
-261 l-34 -32 0 -749 c0 -825 -2 -793 60 -793 62 0 60 -29 60 766 l0 722 148
189 147 189 3 -970 c2 -895 3 -971 19 -988 24 -27 74 -20 90 12 10 20 13 245
13 1043 l0 1017 166 0 166 0 -7 -1174 -8 -1173 24 -17 c30 -20 42 -20 68 2
l22 17 9 1205 c8 1050 7 1208 -6 1228 -14 22 -16 22 -267 22 -188 0 -257 -3
-269 -12z"/>
<path d="M8252 18631 l-32 -30 0 -990 c0 -978 0 -991 20 -1011 25 -25 41 -25
69 -2 l21 17 3 965 2 965 155 0 155 0 3 -961 c2 -1050 -1 -986 59 -986 55 0
53 -35 53 901 l1 866 87 -200 87 -200 5 -327 c3 -179 7 -328 10 -331 26 -23
53 -28 76 -12 13 8 24 23 25 33 1 9 0 160 -1 335 l-2 319 -135 321 c-75 177
-142 330 -151 340 -14 15 -39 17 -246 17 l-232 0 -32 -29z"/>
<path d="M12256 18625 l-21 -11 0 -1004 0 -1004 26 -15 c24 -13 29 -13 53 2
l26 17 0 955 0 955 195 0 195 0 2 -957 3 -957 26 -15 c24 -13 29 -13 53 2 l26
17 0 993 c0 812 -2 997 -13 1011 -13 17 -35 19 -282 20 -167 1 -276 -3 -289
-9z"/>
<path d="M14160 18040 l-1034 -5 -15 -26 c-13 -24 -13 -29 2 -53 l17 -26 1024
0 1023 0 2018 -1112 2018 -1113 -344 -7 c-337 -6 -13339 -32 -13344 -26 -2 2
547 289 1219 640 1293 674 1261 656 1230 706 -32 50 13 71 -1294 -610 -679
-355 -1281 -669 -1338 -698 -56 -29 -104 -56 -106 -59 -2 -3 -7 -413 -10 -910
-5 -828 -4 -906 11 -923 19 -22 52 -23 79 -4 18 14 19 38 25 870 3 471 9 860
13 864 6 5 9483 29 12879 31 l1057 1 0 -870 c0 -857 0 -870 20 -890 27 -27 65
-26 84 2 14 20 16 128 16 959 0 879 -1 937 -17 951 -10 9 -504 283 -1098 610
-2453 1351 -3031 1670 -3050 1682 -11 7 -27 14 -35 17 -8 2 -481 2 -1050 -1z"/>
<path d="M9416 17902 c-110 -64 -204 -125 -210 -134 -7 -11 -7 -26 0 -45 19
-55 52 -45 264 76 l191 111 1119 0 c1221 0 1150 -3 1150 55 0 58 74 55 -1173
54 l-1142 -1 -199 -116z"/>
<path d="M6906 17348 c-14 -19 -16 -64 -16 -293 0 -300 3 -315 60 -315 56 0
60 18 60 283 l0 238 98 -3 97 -3 3 -160 c2 -149 4 -161 23 -177 26 -22 39 -22
65 -4 16 12 20 30 24 116 l5 102 47 -66 c41 -56 52 -66 78 -66 39 0 68 40 53
73 -13 28 -193 279 -208 289 -5 4 -92 8 -192 8 -177 0 -182 -1 -197 -22z"/>
<path d="M9768 17205 l-176 -104 -5 -48 c-2 -26 -5 -200 -6 -387 -1 -242 2
-342 10 -352 6 -8 27 -14 45 -14 26 0 37 5 44 23 5 12 13 177 17 366 l8 345
120 72 120 73 30 -28 c17 -15 67 -60 111 -99 l81 -72 -5 -323 c-4 -295 -3
-324 12 -340 22 -21 69 -22 87 -1 10 12 14 95 17 354 3 186 2 350 -2 364 -3
14 -17 31 -30 38 -13 7 -81 64 -151 126 -69 61 -132 112 -138 112 -7 0 -92
-47 -189 -105z"/>
<path d="M14563 17162 c-89 -53 -166 -106 -171 -117 -6 -12 -10 -188 -11 -392
l-2 -372 26 -17 c32 -21 72 -7 79 28 3 13 9 176 13 363 l8 339 115 68 c63 37
119 68 123 68 5 0 57 -43 115 -95 l107 -95 -4 -324 c-3 -318 -3 -324 18 -345
26 -26 42 -26 71 -3 22 18 22 21 28 373 l5 354 -79 66 c-44 36 -112 96 -152
132 -53 50 -79 67 -100 66 -16 0 -93 -40 -189 -97z"/>
<path d="M6550 15230 c-20 -20 -20 -33 -20 -703 0 -602 2 -685 16 -705 l15
-22 394 0 c344 0 396 2 409 16 14 14 16 92 16 709 0 617 -2 695 -16 709 -13
14 -64 16 -405 16 -376 0 -390 -1 -409 -20z m718 -707 l2 -613 -310 0 -310 0
0 615 0 615 308 -2 307 -3 3 -612z"/>
<path d="M17572 15234 l-22 -15 0 -674 c0 -599 2 -675 16 -689 13 -14 65 -16
418 -16 299 0 405 3 414 12 9 9 12 176 12 689 l0 678 -22 15 c-19 14 -75 16
-408 16 -333 0 -389 -2 -408 -16z m728 -694 l0 -590 -320 0 -320 0 0 590 0
590 320 0 320 0 0 -590z"/>
<path d="M14896 15222 c-336 -2 -382 -4 -398 -19 -17 -15 -18 -52 -18 -690 0
-660 0 -673 20 -693 19 -19 33 -20 408 -20 335 0 391 2 410 16 l22 15 0 683
c0 722 2 698 -45 707 -11 2 -191 3 -399 1z m334 -707 l0 -595 -315 0 -315 0
-2 578 c-2 318 -2 586 0 595 3 15 32 17 318 17 l314 0 0 -595z"/>
<path d="M9347 15182 c-15 -17 -17 -77 -17 -664 0 -612 1 -646 18 -661 17 -15
63 -17 450 -17 419 0 433 1 452 20 20 20 20 33 20 663 0 611 -1 645 -18 660
-17 15 -63 17 -454 17 -409 0 -436 -1 -451 -18z m803 -662 l0 -570 -350 0
-350 0 0 570 0 570 350 0 350 0 0 -570z"/>
<path d="M11920 15169 c-13 -5 -28 -15 -32 -22 -4 -7 -8 -303 -8 -659 0 -635
0 -648 20 -668 19 -19 33 -20 424 -20 383 0 405 1 427 19 l24 19 0 657 c0 626
-1 657 -18 670 -15 11 -99 14 -415 14 -243 0 -407 -4 -422 -10z m740 -679 l0
-570 -335 0 -335 0 0 570 0 570 335 0 335 0 0 -570z"/>
<path d="M23098 15145 c-52 -28 -565 -370 -575 -383 -9 -11 -13 -59 -13 -159
0 -130 2 -145 20 -163 11 -11 29 -20 40 -20 11 0 29 9 40 20 18 18 20 33 20
140 l0 121 218 143 217 143 5 -391 c3 -215 9 -397 14 -404 20 -32 76 -31 98 2
4 6 8 199 8 429 l0 417 150 0 150 0 0 -560 c0 -547 0 -560 20 -580 26 -26 46
-25 76 5 l25 25 -1 590 c-1 536 -3 591 -18 609 -16 19 -32 20 -246 23 -140 2
-237 -1 -248 -7z"/>
<path d="M1817 15082 c-15 -17 -17 -71 -17 -569 0 -529 1 -551 19 -567 27 -25
72 -17 88 14 10 19 13 144 13 528 l0 502 150 0 150 0 0 -393 c0 -433 1 -437
59 -437 55 0 56 1 61 407 l5 375 162 -124 163 -123 0 -141 c0 -126 2 -143 19
-158 27 -25 72 -17 88 14 14 27 18 316 5 336 -4 7 -108 89 -231 183 l-223 171
-248 0 c-226 0 -248 -2 -263 -18z"/>
<path d="M4153 14820 c-21 -16 -120 -109 -221 -207 l-183 -179 3 -398 c3 -380
4 -398 22 -412 29 -21 63 -17 80 8 14 19 16 74 16 391 l0 369 143 138 c78 75
156 149 173 163 l31 26 119 -142 c65 -78 126 -151 134 -161 13 -16 16 -82 20
-398 5 -361 6 -380 24 -394 29 -21 63 -17 80 8 14 19 16 70 16 350 0 190 4
328 9 328 5 0 82 -25 170 -56 155 -54 162 -56 186 -40 29 19 34 66 10 86 -8 7
-97 40 -197 75 l-183 62 -165 196 c-91 108 -168 198 -171 201 -3 3 -22 8 -41
10 -29 4 -44 -1 -75 -24z"/>
<path d="M4650 14837 c-31 -16 -39 -61 -14 -88 16 -17 33 -19 211 -19 180 0
194 1 213 20 34 34 24 71 -23 89 -41 16 -355 14 -387 -2z"/>
<path d="M21572 14694 c-27 -19 -29 -64 -4 -86 9 -9 591 -321 1292 -694 l1275
-679 -1994 -3 c-1839 -2 -1996 -3 -2013 -19 -22 -20 -23 -56 -2 -77 14 -14
218 -16 2100 -16 l2084 0 0 -2756 c0 -1859 3 -2762 10 -2774 23 -42 76 -45
102 -6 4 6 8 1271 8 2812 0 2655 -1 2802 -17 2816 -20 17 -2770 1482 -2800
1492 -10 3 -29 -1 -41 -10z"/>
<path d="M2355 13939 c-731 -413 -1358 -764 -1392 -781 -34 -17 -65 -41 -70
-52 -4 -12 -6 -1278 -3 -2814 5 -2751 5 -2794 24 -2808 27 -19 52 -18 76 6 20
20 20 33 20 2775 l0 2755 1770 0 1771 0 24 25 c30 29 31 36 6 66 l-19 24
-1692 5 -1692 5 1263 710 c694 391 1275 718 1290 727 49 30 29 109 -27 107
-10 0 -617 -338 -1349 -750z"/>
<path d="M19540 14670 c-25 -25 -25 -41 -1 -71 l19 -24 449 -3 c347 -1 454 1
473 11 31 16 39 61 14 88 -16 18 -37 19 -476 19 -445 0 -459 -1 -478 -20z"/>
<path d="M20863 14580 l-128 -109 -203 -82 c-112 -45 -210 -88 -218 -96 -31
-31 -7 -93 37 -93 11 0 92 29 181 65 88 36 162 65 164 65 2 0 4 -155 4 -343 0
-320 1 -345 18 -360 23 -21 56 -22 76 -1 14 13 16 62 16 384 0 336 2 369 18
388 9 10 56 52 105 92 l87 72 163 -90 162 -90 5 -376 c4 -320 7 -378 20 -386
24 -15 55 -12 73 8 15 17 17 60 17 415 0 365 -1 398 -17 413 -30 26 -414 234
-433 234 -10 0 -76 -49 -147 -110z"/>
<path d="M4916 13524 c-15 -14 -16 -298 -16 -2979 l0 -2965 24 -15 c27 -18 69
-7 80 20 3 9 6 1345 6 2969 0 2848 -1 2953 -18 2969 -23 21 -56 22 -76 1z"/>
<path d="M5287 13522 c-23 -25 -21 -55 4 -78 21 -19 155 -19 7080 -22 l7058
-3 17 27 c16 24 16 29 3 53 l-15 26 -2384 6 c-1312 3 -4491 7 -7066 8 -4523 1
-4681 0 -4697 -17z"/>
<path d="M19736 13524 c-15 -14 -16 -300 -16 -2999 l0 -2985 26 -17 c24 -15
29 -15 53 -2 l26 15 3 2984 c2 2765 1 2985 -15 3002 -20 22 -56 23 -77 2z"/>
<path d="M18000 12878 c-64 -4 -147 -14 -185 -23 -69 -16 -184 -67 -197 -89
-4 -6 -8 -381 -8 -833 l0 -822 22 -15 c20 -14 81 -16 469 -16 425 0 448 1 470
19 l24 19 3 793 c1 508 6 797 12 803 19 19 10 44 -25 75 -81 70 -309 105 -585
89z m418 -119 l62 -11 0 -774 0 -774 -380 0 -380 0 0 755 c0 728 1 756 19 774
19 19 53 27 175 42 94 10 425 3 504 -12z"/>
<path d="M14620 12873 c-159 -25 -283 -74 -300 -119 -6 -15 -10 -333 -10 -814
0 -735 1 -789 18 -809 17 -22 19 -22 438 -21 381 0 425 -1 452 -17 28 -16 31
-16 56 0 l26 17 0 800 c0 527 3 800 10 800 6 0 10 11 10 24 0 57 -113 113
-275 135 -71 10 -369 13 -425 4z m489 -113 c36 -6 68 -13 73 -16 4 -3 8 -347
8 -765 l0 -759 -380 0 -380 0 0 755 c0 708 1 755 18 764 16 9 124 27 207 35
71 7 388 -3 454 -14z"/>
<path d="M9346 12859 c-136 -18 -227 -49 -273 -92 l-23 -20 0 -818 0 -818 22
-15 c20 -14 83 -16 485 -16 450 0 464 1 483 20 20 20 20 33 20 825 l0 806 -25
25 c-35 35 -116 70 -205 89 -90 20 -383 28 -484 14z m533 -122 c29 -8 57 -21
62 -28 5 -8 9 -350 9 -761 l0 -748 -395 0 -395 0 0 760 0 760 25 10 c57 22
163 28 395 26 181 -3 259 -7 299 -19z"/>
<path d="M12006 12859 c-135 -18 -240 -54 -278 -96 -17 -18 -18 -74 -18 -833
0 -747 1 -814 16 -831 16 -18 42 -19 469 -19 354 0 455 3 469 13 17 12 18 58
16 810 -1 711 1 797 15 797 32 0 5 62 -39 89 -45 28 -158 59 -256 71 -99 12
-296 11 -394 -1z m459 -109 c39 -6 78 -13 88 -16 16 -5 17 -50 17 -770 l0
-764 -375 0 -375 0 0 759 c0 555 3 762 11 767 47 29 483 45 634 24z"/>
<path d="M6557 12850 c-144 -17 -307 -72 -327 -111 -6 -11 -10 -332 -10 -818
0 -788 0 -801 20 -821 19 -19 33 -20 483 -20 356 0 467 3 480 13 16 11 18 68
18 832 l0 820 -28 23 c-32 26 -126 57 -216 72 -89 15 -329 20 -420 10z m413
-110 c41 -5 87 -12 103 -16 l27 -6 0 -759 0 -759 -380 0 -380 0 -2 728 c-2
400 -2 739 0 754 4 32 30 41 147 57 96 12 393 13 485 1z"/>
<path d="M21118 12414 c-49 -7 -116 -25 -150 -40 -35 -14 -75 -28 -91 -31 -60
-11 -57 26 -57 -843 0 -704 2 -798 16 -818 l15 -22 508 0 c422 0 510 2 527 14
18 14 19 35 21 813 2 630 0 803 -10 823 -9 19 -23 26 -54 31 -23 3 -47 10 -55
16 -22 19 -149 52 -238 63 -115 14 -326 11 -432 -6z m497 -105 c82 -11 135
-27 135 -40 0 -5 9 -9 20 -9 20 0 20 -7 20 -745 l0 -745 -425 0 -425 0 0 741
c0 740 0 742 21 760 57 49 419 71 654 38z"/>
<path d="M3552 12390 c-152 -20 -243 -53 -299 -112 l-32 -33 -1 -823 c-1 -627
1 -827 10 -838 11 -12 88 -14 506 -14 l493 0 15 22 c14 20 16 113 16 813 0
931 5 882 -106 931 -29 13 -90 30 -135 39 -99 20 -362 28 -467 15z m513 -120
c87 -21 80 51 77 -817 l-2 -773 -405 0 -405 0 0 771 0 772 21 18 c21 18 39 23
141 39 76 12 513 4 573 -10z"/>
<path d="M5297 10662 c-22 -24 -21 -55 1 -75 17 -16 518 -17 7052 -15 l7034 3
15 26 c13 24 13 29 -2 53 l-17 26 -7034 0 c-6801 0 -7033 -1 -7049 -18z"/>
<path d="M17968 10109 c-116 -9 -291 -42 -346 -64 -19 -8 -44 -15 -57 -15 -12
0 -29 -8 -38 -18 -16 -17 -17 -116 -17 -1225 l0 -1206 22 -15 c20 -14 100 -16
673 -16 521 0 655 3 669 13 10 7 22 33 27 58 4 24 8 557 9 1184 l0 1140 -46
43 c-57 53 -90 67 -213 92 -182 36 -443 47 -683 29z m672 -119 c41 -6 88 -18
104 -26 16 -8 36 -14 44 -14 9 0 12 -6 8 -16 -3 -9 -6 -522 -6 -1140 l0 -1124
-585 0 -585 0 0 1134 0 1134 25 16 c30 20 93 34 210 45 119 12 689 6 785 -9z"/>
<path d="M12165 10070 c-155 -14 -284 -51 -324 -94 l-22 -23 1 -839 c0 -766 2
-839 17 -856 16 -18 41 -18 483 -16 426 3 468 5 493 21 l27 17 0 810 0 810
-27 39 c-52 75 -158 113 -363 131 -125 11 -164 11 -285 0z m465 -123 c35 -8
66 -20 68 -26 2 -6 10 -11 18 -11 12 0 14 -114 14 -780 l0 -780 -400 0 -400 0
0 790 0 789 39 11 c81 22 192 29 391 25 126 -2 230 -9 270 -18z"/>
<path d="M14830 10070 c-156 -13 -289 -51 -327 -93 -25 -27 -39 -67 -23 -67 7
0 10 -227 10 -802 -1 -649 1 -803 12 -809 28 -18 86 -20 501 -17 l429 3 19 24
c18 22 19 51 19 832 0 790 0 809 -20 829 -51 51 -165 84 -340 100 -125 11
-151 11 -280 0z m455 -122 l60 -13 3 -767 2 -768 -370 0 -370 0 0 769 0 769
68 11 c37 6 81 13 97 15 61 9 451 -3 510 -16z"/>
<path d="M2290 10064 c-150 -18 -269 -63 -312 -118 l-27 -34 -1 -822 c-1 -633
1 -824 11 -836 10 -12 82 -14 501 -14 471 1 490 2 509 21 19 19 19 39 19 819
0 440 -4 808 -8 818 -5 9 -15 31 -23 47 -18 38 -98 79 -194 101 -68 15 -395
28 -475 18z m474 -120 c51 -8 85 -19 95 -31 14 -16 16 -99 13 -791 l-2 -772
-403 2 -402 3 -3 768 c-2 871 -10 796 83 817 131 30 456 32 619 4z"/>
<path d="M6570 10020 c-135 -9 -274 -32 -362 -59 -35 -11 -75 -22 -89 -25 -17
-4 -31 -16 -38 -33 -8 -21 -11 -345 -9 -1221 3 -1168 3 -1194 22 -1208 17 -12
125 -14 676 -14 624 0 658 1 673 18 19 20 23 67 7 77 -7 4 -10 399 -10 1153 0
1299 7 1197 -80 1239 -123 59 -499 94 -790 73z m644 -124 c48 -8 92 -18 97
-23 5 -5 9 -488 9 -1154 l0 -1144 -565 -3 -565 -2 0 1145 c0 1011 2 1145 15
1145 8 0 15 4 15 9 0 12 101 30 225 41 146 13 661 3 769 -14z"/>
<path d="M9335 10019 c-107 -14 -228 -54 -264 -88 l-31 -29 0 -804 c0 -633 3
-808 13 -821 11 -16 48 -18 487 -18 439 0 476 2 487 18 10 13 13 188 13 823
l0 807 -23 21 c-31 29 -101 59 -183 77 -83 19 -398 28 -499 14z m463 -110 c46
-5 94 -14 108 -19 l24 -10 -2 -752 -3 -753 -382 -3 -383 -2 0 758 0 759 58 13
c119 27 396 31 580 9z"/>
<path d="M21969 9825 c-118 -22 -189 -52 -231 -99 l-38 -40 -2 -816 c-2 -448
-2 -820 0 -827 9 -31 58 -34 536 -31 459 3 478 4 492 22 12 17 14 145 14 823
0 451 -4 811 -9 821 -5 9 -14 29 -20 44 -13 33 -67 62 -169 90 -102 27 -454
35 -573 13z m565 -109 c43 -8 74 -20 83 -32 10 -14 13 -163 13 -786 l0 -768
-410 0 -410 0 0 765 c0 716 1 767 18 784 39 43 189 61 447 56 105 -3 221 -11
259 -19z"/>
<path d="M4353 7188 c-712 -945 -1025 -1419 -1312 -1988 -249 -493 -481 -1110
-685 -1818 -91 -315 -216 -832 -216 -890 0 -28 56 -47 385 -133 909 -237 1442
-334 2015 -370 710 -44 1858 109 2711 362 l67 19 -14 48 c-8 26 -16 52 -19 59
-3 9 -22 7 -72 -8 -584 -171 -1323 -300 -1988 -349 -181 -13 -616 -13 -781 0
-405 32 -824 102 -1329 221 -219 51 -827 208 -834 214 -5 6 51 254 100 445
113 435 302 1030 447 1405 326 845 670 1431 1459 2488 118 158 218 287 223
287 13 0 410 -400 565 -570 521 -571 986 -1187 1265 -1675 327 -571 620 -1313
971 -2455 18 -58 35 -108 39 -113 8 -9 115 28 114 39 -3 22 -224 711 -291 908
-232 686 -471 1240 -726 1686 -362 633 -1003 1439 -1661 2088 -108 107 -196
200 -196 206 0 14 -73 76 -89 76 -6 0 -72 -82 -148 -182z"/>
<path d="M19093 6892 c-341 -455 -446 -602 -638 -892 -483 -730 -739 -1263
-1041 -2165 -112 -336 -206 -656 -279 -945 -44 -176 -115 -490 -115 -507 1
-23 175 -73 765 -219 582 -144 998 -219 1480 -266 191 -19 745 -16 975 5 635
58 1301 177 1835 329 61 17 114 34 118 38 5 4 1 33 -9 64 -14 43 -21 55 -33
51 -9 -4 -72 -22 -140 -41 -491 -139 -1101 -249 -1721 -311 -220 -22 -886 -25
-1080 -5 -349 36 -796 115 -1215 213 -181 42 -826 208 -832 213 -6 5 100 441
155 641 210 756 452 1416 713 1937 195 390 470 834 812 1313 148 206 533 721
545 729 21 13 468 -441 739 -750 407 -464 779 -959 1015 -1349 354 -586 620
-1226 978 -2355 62 -195 114 -356 115 -358 5 -6 115 31 115 39 0 4 -45 148
-99 320 -526 1656 -860 2334 -1629 3303 -306 386 -577 690 -917 1030 -126 127
-230 236 -230 242 0 7 -21 28 -46 48 l-47 35 -289 -387z"/>
<path d="M14002 7114 c-12 -8 -22 -25 -22 -38 0 -12 202 -400 449 -862 246
-461 783 -1467 1194 -2234 410 -767 946 -1770 1191 -2229 245 -459 453 -843
462 -853 22 -23 56 -23 77 0 26 28 21 47 -32 146 -97 182 -2248 4207 -2733
5116 -275 514 -508 943 -520 953 -25 21 -37 21 -66 1z"/>
<path d="M10696 7053 c-13 -21 -286 -508 -607 -1083 -738 -1324 -1026 -1842
-1973 -3538 -421 -756 -766 -1381 -766 -1391 0 -45 64 -72 95 -40 7 8 502 892
1100 1964 598 1073 1351 2422 1673 2999 322 577 587 1059 590 1071 5 29 -23
55 -59 55 -22 0 -34 -8 -53 -37z"/>
</g>
</svg>
